<svg width="1440" height="319" viewBox="0 0 1440 319" fill="none" xmlns="http://www.w3.org/2000/svg">
<path fill-rule="evenodd" clip-rule="evenodd" d="M1440 0H0V318C19.0571 323.049 66.4615 300.912 103.623 240.319C116.725 227.25 149.538 208.953 175.98 240.319C174.551 240.319 206.948 284.873 223.325 307.15C231.067 315.466 251.732 325.862 272.457 300.912C298.362 269.724 309.975 264.378 326.055 265.269C338.918 265.982 364.764 293.486 376.079 307.15C383.226 313.981 403.772 321.407 428.784 296.457C453.797 271.506 489.826 286.061 504.715 296.457L523.474 307.15C530.025 310.714 546.521 314.991 560.099 303.585C577.072 289.328 605.658 266.16 657.469 307.15H811.117H1084.47H1325.66H1440V0Z" fill="#C0D6FF"/>
</svg>
